<mxfile host="Electron" modified="2023-06-26T11:15:58.435Z" agent="Mozilla/5.0 (Windows NT 10.0; Win64; x64) AppleWebKit/537.36 (KHTML, like Gecko) draw.io/21.5.0 Chrome/112.0.5615.204 Electron/24.5.1 Safari/537.36" version="21.5.0" etag="i5idoSoDNFVGPm8pkL4F" type="device">
  <diagram id="E1lvYdzGTPUJiAxK6zVt" name="第 1 页">
    <mxGraphModel dx="885" dy="515" grid="1" gridSize="10" guides="1" tooltips="1" connect="1" arrows="1" fold="1" page="1" pageScale="1" pageWidth="827" pageHeight="1169" math="0" shadow="0">
      <root>
        <mxCell id="0" />
        <mxCell id="1" parent="0" />
        <mxCell id="TIKN9C_sbuE2IpTP_yng-9" style="edgeStyle=orthogonalEdgeStyle;rounded=0;orthogonalLoop=1;jettySize=auto;html=1;exitX=1;exitY=0.5;exitDx=0;exitDy=0;entryX=0;entryY=0.5;entryDx=0;entryDy=0;" edge="1" parent="1" source="TIKN9C_sbuE2IpTP_yng-4" target="TIKN9C_sbuE2IpTP_yng-5">
          <mxGeometry relative="1" as="geometry" />
        </mxCell>
        <mxCell id="TIKN9C_sbuE2IpTP_yng-4" value="取指" style="rounded=0;whiteSpace=wrap;html=1;" vertex="1" parent="1">
          <mxGeometry x="20" y="40" width="120" height="60" as="geometry" />
        </mxCell>
        <mxCell id="TIKN9C_sbuE2IpTP_yng-10" style="edgeStyle=orthogonalEdgeStyle;rounded=0;orthogonalLoop=1;jettySize=auto;html=1;exitX=1;exitY=0.5;exitDx=0;exitDy=0;entryX=0;entryY=0.5;entryDx=0;entryDy=0;" edge="1" parent="1" source="TIKN9C_sbuE2IpTP_yng-5" target="TIKN9C_sbuE2IpTP_yng-6">
          <mxGeometry relative="1" as="geometry" />
        </mxCell>
        <mxCell id="TIKN9C_sbuE2IpTP_yng-5" value="译码" style="rounded=0;whiteSpace=wrap;html=1;" vertex="1" parent="1">
          <mxGeometry x="160" y="40" width="120" height="60" as="geometry" />
        </mxCell>
        <mxCell id="TIKN9C_sbuE2IpTP_yng-11" style="edgeStyle=orthogonalEdgeStyle;rounded=0;orthogonalLoop=1;jettySize=auto;html=1;exitX=1;exitY=0.5;exitDx=0;exitDy=0;entryX=0;entryY=0.5;entryDx=0;entryDy=0;" edge="1" parent="1" source="TIKN9C_sbuE2IpTP_yng-6" target="TIKN9C_sbuE2IpTP_yng-7">
          <mxGeometry relative="1" as="geometry" />
        </mxCell>
        <mxCell id="TIKN9C_sbuE2IpTP_yng-6" value="执行" style="rounded=0;whiteSpace=wrap;html=1;" vertex="1" parent="1">
          <mxGeometry x="300" y="40" width="120" height="60" as="geometry" />
        </mxCell>
        <mxCell id="TIKN9C_sbuE2IpTP_yng-12" style="edgeStyle=orthogonalEdgeStyle;rounded=0;orthogonalLoop=1;jettySize=auto;html=1;exitX=1;exitY=0.5;exitDx=0;exitDy=0;entryX=0;entryY=0.5;entryDx=0;entryDy=0;" edge="1" parent="1" source="TIKN9C_sbuE2IpTP_yng-7" target="TIKN9C_sbuE2IpTP_yng-8">
          <mxGeometry relative="1" as="geometry" />
        </mxCell>
        <mxCell id="TIKN9C_sbuE2IpTP_yng-24" value="" style="edgeStyle=orthogonalEdgeStyle;rounded=0;orthogonalLoop=1;jettySize=auto;html=1;" edge="1" parent="1" source="TIKN9C_sbuE2IpTP_yng-7">
          <mxGeometry relative="1" as="geometry">
            <mxPoint x="500.02857142857147" y="120" as="targetPoint" />
          </mxGeometry>
        </mxCell>
        <mxCell id="TIKN9C_sbuE2IpTP_yng-7" value="访存" style="rounded=0;whiteSpace=wrap;html=1;" vertex="1" parent="1">
          <mxGeometry x="440" y="40" width="120" height="60" as="geometry" />
        </mxCell>
        <mxCell id="TIKN9C_sbuE2IpTP_yng-26" style="edgeStyle=orthogonalEdgeStyle;rounded=0;orthogonalLoop=1;jettySize=auto;html=1;exitX=0.5;exitY=1;exitDx=0;exitDy=0;" edge="1" parent="1" source="TIKN9C_sbuE2IpTP_yng-8">
          <mxGeometry relative="1" as="geometry">
            <mxPoint x="640.1428571428571" y="120" as="targetPoint" />
          </mxGeometry>
        </mxCell>
        <mxCell id="TIKN9C_sbuE2IpTP_yng-8" value="回写" style="rounded=0;whiteSpace=wrap;html=1;" vertex="1" parent="1">
          <mxGeometry x="580" y="40" width="120" height="60" as="geometry" />
        </mxCell>
        <mxCell id="TIKN9C_sbuE2IpTP_yng-25" value="load，store指令" style="text;html=1;align=center;verticalAlign=middle;resizable=0;points=[];autosize=1;strokeColor=none;fillColor=none;" vertex="1" parent="1">
          <mxGeometry x="445" y="118" width="110" height="30" as="geometry" />
        </mxCell>
        <mxCell id="TIKN9C_sbuE2IpTP_yng-27" value="写回结果到目标寄存器" style="text;html=1;align=center;verticalAlign=middle;resizable=0;points=[];autosize=1;strokeColor=none;fillColor=none;" vertex="1" parent="1">
          <mxGeometry x="570" y="118" width="140" height="30" as="geometry" />
        </mxCell>
      </root>
    </mxGraphModel>
  </diagram>
</mxfile>
